<svg width="320" height="46" viewBox="0 0 320 46" fill="none" xmlns="http://www.w3.org/2000/svg">
<path d="M319 45L319 36.1421C319 33.49 317.946 30.9464 316.071 29.0711L290.929 3.92893C289.054 2.05357 286.51 1 283.858 1H54.7388C51.7395 1 48.8985 2.34627 46.9992 4.66762L17.0008 41.3324C15.1015 43.6537 12.2605 45 9.26121 45H0" stroke="#0BFFE2"/>
<g clip-path="url(#clip0_2003_1802)">
<path d="M294.082 15H127V45H294.082V15Z" fill="black"/>
<path d="M52 39.0737L57.9261 44.9998H52V39.0737Z" fill="#0BFFE2"/>
<path d="M258.7 15L288.7 45H65.4995L51.8691 31.3696V15H258.7Z" fill="#0BFFE2"/>
<path d="M294.082 34.2412V42.6771L266.404 15H274.841L294.082 34.2412Z" fill="#0BFFE2"/>
<path d="M87.962 37H79.142L77.9 35.758V25.678L79.142 24.4H87.962L89.204 25.678V28.18H86.702V26.92H80.42V34.48H86.702V33.238H89.204V35.758L87.962 37ZM93.3399 34.48H99.6219V26.92H93.3399V34.48ZM100.882 37H92.0619L90.8199 35.758V25.678L92.0619 24.4H100.882L102.124 25.678V35.758L100.882 37ZM115.22 37H112.718L106.436 28.594V37H103.916V24.4H106.436L112.718 32.788V24.4H115.22V37ZM128.315 37H125.813L119.531 28.594V37H117.011V24.4H119.531L125.813 32.788V24.4H128.315V37ZM140.799 37H130.107V24.4H140.799V26.92H132.627V29.458H140.169V31.978H132.627V34.48H140.799V37ZM152.474 37H143.654L142.412 35.758V25.678L143.654 24.4H152.474L153.716 25.678V28.18H151.214V26.92H144.932V34.48H151.214V33.238H153.716V35.758L152.474 37ZM161.722 37H159.202V26.92H154.792V24.4H166.096V26.92H161.722V37ZM183.832 37L181.924 34.75L180.052 37H177.532L174.382 33.238V24.4H176.902V31.978L178.81 34.48L180.664 31.978V24.4H183.184V31.978L185.092 34.48L186.964 31.978V24.4H189.466V33.238L186.352 37H183.832ZM193.426 30.718H199.708V26.92H195.928L193.426 29.458V30.718ZM193.426 37H190.906V28.198L194.668 24.4H202.21V37H199.708V33.238H193.426V37ZM204.005 24.4H206.525V34.48H214.697V37H204.005V24.4ZM215.959 24.4H218.479V34.48H226.651V37H215.959V24.4ZM238.604 37H227.912V24.4H238.604V26.92H230.432V29.458H237.974V31.978H230.432V34.48H238.604V37ZM246.606 37H244.086V26.92H239.676V24.4H250.98V26.92H246.606V37Z" fill="#02010B"/>
</g>
<path d="M303.5 1L319 16.5V1H303.5Z" fill="#0BFFE2"/>
<defs>
<clipPath id="clip0_2003_1802">
<rect width="243" height="30" fill="white" transform="translate(52 15)"/>
</clipPath>
</defs>
</svg>
