<svg width="320" height="46" viewBox="0 0 320 46" fill="none" xmlns="http://www.w3.org/2000/svg">
<path d="M1 45L1 36.1421C1 33.49 2.05357 30.9464 3.92893 29.0711L29.0711 3.92893C30.9464 2.05357 33.49 1 36.1421 1H265.261C268.261 1 271.101 2.34627 273.001 4.66762L302.999 41.3324C304.899 43.6537 307.739 45 310.739 45H320" stroke="#0BFFE2"/>
<path d="M65.32 35H61.96V29.984L65.32 26.624L61.96 23.264V18.2H65.32V21.584L68.656 24.944H70.336L73.696 21.584V18.2H77.032V23.264L73.696 26.624L77.032 29.984V35H73.696V31.64L70.336 28.304H68.656L65.32 31.64V35ZM87.7122 35H84.3522V21.56H78.4722V18.2H93.5442V21.56H87.7122V35ZM109.479 35H95.2234V18.2H109.479V21.56H98.5834V24.944H108.639V28.304H98.5834V31.64H109.479V35ZM114.99 26.624H123.366V21.56H114.99V26.624ZM126.702 35H123.366V33.344L121.686 31.64L120.006 29.984H114.99V35H111.63V18.2H125.046L126.702 19.904V28.304L125.046 29.984L126.702 31.64V35ZM132.451 35H129.091V18.2H132.451L138.307 26.336L144.259 18.2H147.499V35H144.139V23.672L139.747 30.128H136.939L132.451 23.672V35ZM153.263 35H149.903V18.2H153.263V35ZM170.741 35H167.405L159.029 23.792V35H155.669V18.2H159.029L167.405 29.384V18.2H170.741V35ZM176.25 26.624H184.626V21.56H179.586L176.25 24.944V26.624ZM176.25 35H172.89V23.264L177.906 18.2H187.962V35H184.626V29.984H176.25V35ZM198.876 35H195.516V21.56H189.636V18.2H204.708V21.56H198.876V35ZM209.748 35H206.388V18.2H209.748V35ZM215.513 31.64H223.889V21.56H215.513V31.64ZM225.569 35H213.809L212.153 33.344V19.904L213.809 18.2H225.569L227.225 19.904V33.344L225.569 35ZM244.686 35H241.35L232.974 23.792V35H229.614V18.2H232.974L241.35 29.384V18.2H244.686V35Z" fill="#0BFFE2"/>
<path d="M16.5 1L1 16.5V1H16.5Z" fill="#0BFFE2"/>
</svg>
