<svg width="510" height="47" viewBox="0 0 510 47" fill="none" xmlns="http://www.w3.org/2000/svg">
<path d="M0.200195 37.4019L9.28683 46.4885H0.200195V37.4019Z" fill="#0BFFE2"/>
<path d="M55 0.48877V46.4888H20.8999L0 25.5889V0.48877L55 0.48877Z" fill="#0BFFE2"/>
<rect width="400.208" height="46" transform="translate(55 0.48877)" fill="#0BFFE2"/>
<path d="M237.404 29.1888H244.384V26.4088H237.404V29.1888ZM237.404 23.6088H244.384V20.7888H237.404V23.6088ZM245.784 31.9888H234.604V17.9888H245.784L247.164 19.4088V23.6088L245.784 25.0088L247.164 26.4088V30.6088L245.784 31.9888ZM249.154 17.9888H251.954V29.1888H258.934V17.9888H261.714V30.6088L260.334 31.9888H250.534L249.154 30.6088V17.9888ZM270.985 31.9888H268.205V26.7088L263.305 23.2088V17.9888H266.105V22.0288L269.565 24.3888L273.085 22.0288V17.9888H275.865V23.2088L270.985 26.7088V31.9888Z" fill="#02010B"/>
<path d="M455.749 0.48877L501.749 46.4888H455.208V25.5889V0.48877H455.749Z" fill="#0BFFE2"/>
<path d="M510 29.992V42.9269L467.562 0.48877H480.497L510 29.992Z" fill="#0BFFE2"/>
</svg>
