<svg width="183" height="39" viewBox="0 0 183 39" fill="none" xmlns="http://www.w3.org/2000/svg">
<g clip-path="url(#clip0_9_260)">
<path d="M181.27 36.2983H8.22619C5.40438 33.4766 3.8223 31.8945 1 29.0726V1.48755H165.151L181.27 17.6052V36.2983Z" stroke="#0BFFE2" stroke-width="1.65765" stroke-miterlimit="10"/>
<path d="M172.298 1.48755H181.185V10.3732L172.518 1.70764" fill="#0BFFE2"/>
<path d="M34.8 23.0931H41.78V20.3131H34.8V23.0931ZM34.8 17.5131H41.78V14.6931H34.8V17.5131ZM43.18 25.8931H32V11.8931H43.18L44.56 13.3131V17.5131L43.18 18.9131L44.56 20.3131V24.5131L43.18 25.8931ZM46.5508 11.8931H49.3508V23.0931H56.3308V11.8931H59.1108V24.5131L57.7308 25.8931H47.9308L46.5508 24.5131V11.8931ZM68.3816 25.8931H65.6016V20.6131L60.7016 17.1131V11.8931H63.5016V15.9331L66.9616 18.2931L70.4816 15.9331V11.8931H73.2616V17.1131L68.3816 20.6131V25.8931ZM89.9789 25.8931H87.1789V14.6931H82.2789V11.8931H94.8389V14.6931H89.9789V25.8931ZM99.0383 23.0931H106.018V14.6931H99.0383V23.0931ZM107.418 25.8931H97.6183L96.2383 24.5131V13.3131L97.6183 11.8931H107.418L108.798 13.3131V24.5131L107.418 25.8931ZM113.589 25.8931H110.789V11.8931H113.589V17.5131H117.769L120.569 14.7131V11.8931H123.349V16.1131L120.569 18.9131L123.349 21.7131V25.8931H120.569V23.0931L117.769 20.3131H113.589V25.8931ZM137.025 25.8931H125.145V11.8931H137.025V14.6931H127.945V17.5131H136.325V20.3131H127.945V23.0931H137.025V25.8931ZM151.376 25.8931H148.596L141.616 16.5531V25.8931H138.816V11.8931H141.616L148.596 21.2131V11.8931H151.376V25.8931Z" fill="#0BFFE2"/>
</g>
<defs>
<clipPath id="clip0_9_260">
<rect width="183" height="38" fill="white" transform="translate(0 0.244385)"/>
</clipPath>
</defs>
</svg>
