<svg width="510" height="47" viewBox="0 0 510 47" fill="none" xmlns="http://www.w3.org/2000/svg">
<g clip-path="url(#clip0_64_2)">
<path d="M0.200195 37.4019L9.28683 46.4885H0.200195V37.4019Z" fill="#0BFFE2"/>
<path d="M58 0.98877V45.9888H21.107L0.5 25.3818V0.98877H58Z" stroke="#0BFFE2"/>
</g>
<mask id="path-3-inside-1_64_2" fill="white">
<path d="M55 0.48877H455.208V46.4888H55V0.48877Z"/>
</mask>
<path d="M55 1.48877H455.208V-0.51123H55V1.48877ZM455.208 45.4888H55V47.4888H455.208V45.4888Z" fill="#0BFFE2" mask="url(#path-3-inside-1_64_2)"/>
<path d="M237.404 29.1888H244.384V26.4088H237.404V29.1888ZM237.404 23.6088H244.384V20.7888H237.404V23.6088ZM245.784 31.9888H234.604V17.9888H245.784L247.164 19.4088V23.6088L245.784 25.0088L247.164 26.4088V30.6088L245.784 31.9888ZM249.154 17.9888H251.954V29.1888H258.934V17.9888H261.714V30.6088L260.334 31.9888H250.534L249.154 30.6088V17.9888ZM270.985 31.9888H268.205V26.7088L263.305 23.2088V17.9888H266.105V22.0288L269.565 24.3888L273.085 22.0288V17.9888H275.865V23.2088L270.985 26.7088V31.9888Z" fill="#0BFFE2"/>
<g clip-path="url(#clip1_64_2)">
<path d="M453 0.98877H455.542L500.542 45.9888H453V25.5889V0.98877Z" stroke="#0BFFE2"/>
<path d="M510 29.992V42.9269L467.562 0.48877H480.497L510 29.992Z" fill="#0BFFE2"/>
</g>
<defs>
<clipPath id="clip0_64_2">
<rect width="55" height="46" fill="white" transform="translate(0 0.48877)"/>
</clipPath>
<clipPath id="clip1_64_2">
<rect width="54.7923" height="46" fill="white" transform="translate(455.208 0.48877)"/>
</clipPath>
</defs>
</svg>
