<svg width="510" height="46" viewBox="0 0 510 46" fill="none" xmlns="http://www.w3.org/2000/svg">
<path d="M0.200195 36.9132L9.28683 45.9998H0.200195V36.9132Z" fill="#0BFFE2"/>
<path d="M55 0V46H20.8999L0 25.1001V0L55 0Z" fill="#0BFFE2"/>
<rect width="400.208" height="46" transform="translate(55)" fill="#0BFFE2"/>
<path d="M234.784 31.5H224.984L223.604 30.12V18.92L224.984 17.5H234.784L236.164 18.92V21.7H233.384V20.3H226.404V28.7H233.384V27.32H236.164V30.12L234.784 31.5ZM237.959 17.5H240.759V28.7H249.839V31.5H237.959V17.5ZM253.84 24.52H260.82V20.3H256.62L253.84 23.12V24.52ZM253.84 31.5H251.04V21.72L255.22 17.5H263.6V31.5H260.82V27.32H253.84V31.5ZM268.396 31.5H265.596V17.5H268.396V31.5ZM273.201 31.5H270.401V17.5H273.201L278.081 24.28L283.041 17.5H285.741V31.5H282.941V22.06L279.281 27.44H276.941L273.201 22.06V31.5Z" fill="#02010B"/>
<path d="M455.749 0L501.749 46H455.208V25.1001V0H455.749Z" fill="#0BFFE2"/>
<path d="M510 29.5032V42.4382L467.561 0H480.497L510 29.5032Z" fill="#0BFFE2"/>
</svg>
