<svg width="510" height="47" viewBox="0 0 510 47" fill="none" xmlns="http://www.w3.org/2000/svg">
<g clip-path="url(#clip0_60_2828)">
<path d="M0.200195 37.402L9.28683 46.4886H0.200195V37.402Z" fill="#0BFFE2"/>
<path d="M58 0.98877V45.9888H21.107L0.5 25.3818V0.98877H58Z" stroke="#0BFFE2"/>
</g>
<mask id="path-3-inside-1_60_2828" fill="white">
<path d="M55 0.48877H455.208V46.4888H55V0.48877Z"/>
</mask>
<path d="M55 1.48877H455.208V-0.51123H55V1.48877ZM455.208 45.4888H55V47.4888H455.208V45.4888Z" fill="#0BFFE2" mask="url(#path-3-inside-1_60_2828)"/>
<path d="M234.784 31.9888H224.984L223.604 30.6088V19.4088L224.984 17.9888H234.784L236.164 19.4088V22.1888H233.384V20.7888H226.404V29.1888H233.384V27.8088H236.164V30.6088L234.784 31.9888ZM237.959 17.9888H240.759V29.1888H249.839V31.9888H237.959V17.9888ZM253.841 25.0088H260.821V20.7888H256.621L253.841 23.6088V25.0088ZM253.841 31.9888H251.041V22.2088L255.221 17.9888H263.601V31.9888H260.821V27.8088H253.841V31.9888ZM268.396 31.9888H265.596V17.9888H268.396V31.9888ZM273.201 31.9888H270.401V17.9888H273.201L278.081 24.7688L283.041 17.9888H285.741V31.9888H282.941V22.5488L279.281 27.9288H276.941L273.201 22.5488V31.9888Z" fill="#0BFFE2"/>
<g clip-path="url(#clip1_60_2828)">
<path d="M453 0.98877H455.542L500.542 45.9888H453V25.5889V0.98877Z" stroke="#0BFFE2"/>
<path d="M510 29.992V42.9269L467.561 0.48877H480.497L510 29.992Z" fill="#0BFFE2"/>
</g>
<defs>
<clipPath id="clip0_60_2828">
<rect width="55" height="46" fill="white" transform="translate(0 0.48877)"/>
</clipPath>
<clipPath id="clip1_60_2828">
<rect width="54.7923" height="46" fill="white" transform="translate(455.208 0.48877)"/>
</clipPath>
</defs>
</svg>
