<svg width="1200" height="25" viewBox="0 0 1200 25" fill="none" xmlns="http://www.w3.org/2000/svg">
<path d="M27.7791 24.4141H24L0 0.414062H3.7758L27.7791 24.4141Z" fill="#0BFFE2"/>
<path d="M36.4015 24.4141H32.6224L8.61914 0.414062H12.3982L36.4015 24.4141Z" fill="#0BFFE2"/>
<path d="M45.0212 24.4141H41.2422L17.2422 0.414062H21.0212L45.0212 24.4141Z" fill="#0BFFE2"/>
<path d="M53.6395 24.4141H49.8603L25.8604 0.414062H29.6362L53.6395 24.4141Z" fill="#0BFFE2"/>
<path d="M62.2629 24.4141H58.4838L34.4805 0.414062H38.2596L62.2629 24.4141Z" fill="#0BFFE2"/>
<path d="M70.8815 24.4141H67.1025L43.1025 0.414062H46.8815L70.8815 24.4141Z" fill="#0BFFE2"/>
<path d="M79.5008 24.4141H75.7217L51.7217 0.414062H55.5008L79.5008 24.4141Z" fill="#0BFFE2"/>
<path d="M88.1232 24.4141H84.3441L60.3408 0.414062H64.1199L88.1232 24.4141Z" fill="#0BFFE2"/>
<path d="M96.742 24.4141H92.9629L68.9629 0.414062H72.742L96.742 24.4141Z" fill="#0BFFE2"/>
<path d="M105.361 24.4141H101.582L77.582 0.414062H81.3611L105.361 24.4141Z" fill="#0BFFE2"/>
<path d="M113.981 24.4141H110.202L86.2021 0.414062H89.9813L113.981 24.4141Z" fill="#0BFFE2"/>
<path d="M122.6 24.4141H118.821L94.8213 0.414062H98.6004L122.6 24.4141Z" fill="#0BFFE2"/>
<path d="M131.22 24.4141H127.44L103.44 0.414062H107.22L131.22 24.4141Z" fill="#0BFFE2"/>
<path d="M139.839 24.4141H136.06L112.06 0.414062H115.839L139.839 24.4141Z" fill="#0BFFE2"/>
<path d="M148.458 24.4141H144.679L120.679 0.414062H124.458L148.458 24.4141Z" fill="#0BFFE2"/>
<path d="M157.077 24.4141H153.298L129.298 0.414062H133.077L157.077 24.4141Z" fill="#0BFFE2"/>
<path d="M165.696 24.4141H161.917L137.917 0.414062H141.696L165.696 24.4141Z" fill="#0BFFE2"/>
<path d="M174.315 24.4141H170.536L146.536 0.414062H150.315L174.315 24.4141Z" fill="#0BFFE2"/>
<path d="M182.934 24.4141H179.155L155.155 0.414062H158.934L182.934 24.4141Z" fill="#0BFFE2"/>
<path d="M191.554 24.4141H187.774L163.774 0.414062H167.554L191.554 24.4141Z" fill="#0BFFE2"/>
<path d="M200.173 24.4141H196.394L172.394 0.414062H176.173L200.173 24.4141Z" fill="#0BFFE2"/>
<path d="M208.792 24.4141H205.013L181.013 0.414062H184.792L208.792 24.4141Z" fill="#0BFFE2"/>
<path d="M217.411 24.4141H213.632L189.632 0.414062H193.411L217.411 24.4141Z" fill="#0BFFE2"/>
<path d="M226.03 24.4141H222.251L198.251 0.414062H202.03L226.03 24.4141Z" fill="#0BFFE2"/>
<path d="M234.649 24.4141H230.87L206.87 0.414062H210.649L234.649 24.4141Z" fill="#0BFFE2"/>
<path d="M243.268 24.4141H239.489L215.489 0.414062H219.268L243.268 24.4141Z" fill="#0BFFE2" fill-opacity="0.35"/>
<path d="M251.888 24.4141H248.109L224.109 0.414062H227.888L251.888 24.4141Z" fill="#0BFFE2" fill-opacity="0.35"/>
<path d="M260.508 24.4141H256.729L232.729 0.414062H236.508L260.508 24.4141Z" fill="#0BFFE2" fill-opacity="0.35"/>
<path d="M269.127 24.4141H265.348L241.348 0.414062H245.127L269.127 24.4141Z" fill="#0BFFE2" fill-opacity="0.35"/>
<path d="M277.746 24.4141H273.967L249.967 0.414062H253.746L277.746 24.4141Z" fill="#0BFFE2" fill-opacity="0.35"/>
<path d="M286.365 24.4141H282.586L258.586 0.414062H262.365L286.365 24.4141Z" fill="#0BFFE2" fill-opacity="0.35"/>
<path d="M294.984 24.4141H291.205L267.205 0.414062H270.984L294.984 24.4141Z" fill="#0BFFE2" fill-opacity="0.35"/>
<path d="M303.603 24.4141H299.824L275.824 0.414062H279.603L303.603 24.4141Z" fill="#0BFFE2" fill-opacity="0.35"/>
<path d="M312.222 24.4141H308.443L284.443 0.414062H288.222L312.222 24.4141Z" fill="#0BFFE2" fill-opacity="0.35"/>
<path d="M320.842 24.4141H317.063L293.062 0.414062H296.842L320.842 24.4141Z" fill="#0BFFE2" fill-opacity="0.35"/>
<path d="M329.461 24.4141H325.682L301.682 0.414062H305.461L329.461 24.4141Z" fill="#0BFFE2" fill-opacity="0.35"/>
<path d="M338.08 24.4141H334.301L310.301 0.414062H314.08L338.08 24.4141Z" fill="#0BFFE2" fill-opacity="0.35"/>
<path d="M346.699 24.4141H342.92L318.92 0.414062H322.699L346.699 24.4141Z" fill="#0BFFE2" fill-opacity="0.35"/>
<path d="M355.318 24.4141H351.539L327.539 0.414062H331.318L355.318 24.4141Z" fill="#0BFFE2" fill-opacity="0.35"/>
<path d="M363.937 24.4141H360.158L336.158 0.414062H339.937L363.937 24.4141Z" fill="#0BFFE2" fill-opacity="0.35"/>
<path d="M372.556 24.4141H368.777L344.777 0.414062H348.556L372.556 24.4141Z" fill="#0BFFE2" fill-opacity="0.35"/>
<path d="M381.176 24.4141H377.396L353.396 0.414062H357.176L381.176 24.4141Z" fill="#0BFFE2" fill-opacity="0.35"/>
<path d="M389.796 24.4141H386.017L362.017 0.414062H365.796L389.796 24.4141Z" fill="#0BFFE2" fill-opacity="0.35"/>
<path d="M398.415 24.4141H394.636L370.636 0.414062H374.415L398.415 24.4141Z" fill="#0BFFE2" fill-opacity="0.35"/>
<path d="M407.034 24.4141H403.255L379.255 0.414062H383.034L407.034 24.4141Z" fill="#0BFFE2" fill-opacity="0.35"/>
<path d="M415.653 24.4141H411.874L387.874 0.414062H391.653L415.653 24.4141Z" fill="#0BFFE2" fill-opacity="0.35"/>
<path d="M424.272 24.4141H420.493L396.493 0.414062H400.272L424.272 24.4141Z" fill="#0BFFE2" fill-opacity="0.35"/>
<path d="M432.891 24.4141H429.112L405.112 0.414062H408.891L432.891 24.4141Z" fill="#0BFFE2" fill-opacity="0.35"/>
<path d="M441.511 24.4141H437.731L413.731 0.414062H417.511L441.511 24.4141Z" fill="#0BFFE2" fill-opacity="0.35"/>
<path d="M450.13 24.4141H446.351L422.351 0.414062H426.13L450.13 24.4141Z" fill="#0BFFE2" fill-opacity="0.35"/>
<path d="M458.749 24.4141H454.97L430.97 0.414062H434.749L458.749 24.4141Z" fill="#0BFFE2" fill-opacity="0.35"/>
<path d="M467.368 24.4141H463.589L439.589 0.414062H443.368L467.368 24.4141Z" fill="#0BFFE2" fill-opacity="0.35"/>
<path d="M475.987 24.4141H472.208L448.208 0.414062H451.987L475.987 24.4141Z" fill="#0BFFE2" fill-opacity="0.35"/>
<path d="M484.606 24.4141H480.827L456.827 0.414062H460.606L484.606 24.4141Z" fill="#0BFFE2" fill-opacity="0.35"/>
<path d="M493.225 24.4141H489.446L465.446 0.414062H469.225L493.225 24.4141Z" fill="#0BFFE2" fill-opacity="0.35"/>
<path d="M501.845 24.4141H498.065L474.065 0.414062H477.845L501.845 24.4141Z" fill="#0BFFE2" fill-opacity="0.35"/>
<path d="M510.464 24.4141H506.685L482.685 0.414062H486.464L510.464 24.4141Z" fill="#0BFFE2" fill-opacity="0.35"/>
<path d="M519.083 24.4141H515.304L491.304 0.414062H495.083L519.083 24.4141Z" fill="#0BFFE2" fill-opacity="0.35"/>
<path d="M527.703 24.4141H523.924L499.924 0.414062H503.703L527.703 24.4141Z" fill="#0BFFE2" fill-opacity="0.35"/>
<path d="M536.322 24.4141H532.543L508.543 0.414062H512.322L536.322 24.4141Z" fill="#0BFFE2" fill-opacity="0.35"/>
<path d="M544.941 24.4141H541.162L517.162 0.414062H520.941L544.941 24.4141Z" fill="#0BFFE2" fill-opacity="0.35"/>
<path d="M553.56 24.4141H549.781L525.781 0.414062H529.56L553.56 24.4141Z" fill="#0BFFE2" fill-opacity="0.35"/>
<path d="M562.179 24.4141H558.4L534.4 0.414062H538.179L562.179 24.4141Z" fill="#0BFFE2" fill-opacity="0.35"/>
<path d="M570.799 24.4141H567.02L543.02 0.414062H546.799L570.799 24.4141Z" fill="#0BFFE2" fill-opacity="0.35"/>
<path d="M579.418 24.4141H575.639L551.639 0.414062H555.418L579.418 24.4141Z" fill="#0BFFE2" fill-opacity="0.35"/>
<path d="M588.037 24.4141H584.258L560.258 0.414062H564.037L588.037 24.4141Z" fill="#0BFFE2" fill-opacity="0.35"/>
<path d="M596.656 24.4141H592.877L568.877 0.414062H572.656L596.656 24.4141Z" fill="#0BFFE2" fill-opacity="0.35"/>
<path d="M605.275 24.4141H601.496L577.496 0.414062H581.275L605.275 24.4141Z" fill="#0BFFE2" fill-opacity="0.35"/>
<path d="M613.894 24.4141H610.115L586.115 0.414062H589.894L613.894 24.4141Z" fill="#0BFFE2" fill-opacity="0.35"/>
<path d="M622.513 24.4141H618.734L594.734 0.414062H598.513L622.513 24.4141Z" fill="#0BFFE2" fill-opacity="0.35"/>
<path d="M631.133 24.4141H627.354L603.354 0.414062H607.133L631.133 24.4141Z" fill="#0BFFE2" fill-opacity="0.35"/>
<path d="M639.752 24.4141H635.973L611.973 0.414062H615.752L639.752 24.4141Z" fill="#0BFFE2" fill-opacity="0.35"/>
<path d="M648.371 24.4141H644.592L620.592 0.414062H624.371L648.371 24.4141Z" fill="#0BFFE2" fill-opacity="0.35"/>
<path d="M656.99 24.4141H653.211L629.211 0.414062H632.99L656.99 24.4141Z" fill="#0BFFE2" fill-opacity="0.35"/>
<path d="M665.609 24.4141H661.83L637.83 0.414062H641.609L665.609 24.4141Z" fill="#0BFFE2" fill-opacity="0.35"/>
<path d="M674.229 24.4141H670.45L646.45 0.414062H650.229L674.229 24.4141Z" fill="#0BFFE2" fill-opacity="0.35"/>
<path d="M682.848 24.4141H679.069L655.069 0.414062H658.848L682.848 24.4141Z" fill="#0BFFE2" fill-opacity="0.35"/>
<path d="M691.468 24.4141H687.688L663.688 0.414062H667.468L691.468 24.4141Z" fill="#0BFFE2" fill-opacity="0.35"/>
<path d="M700.087 24.4141H696.308L672.308 0.414062H676.087L700.087 24.4141Z" fill="#0BFFE2" fill-opacity="0.35"/>
<path d="M708.706 24.4141H704.927L680.927 0.414062H684.706L708.706 24.4141Z" fill="#0BFFE2" fill-opacity="0.35"/>
<path d="M717.325 24.4141H713.546L689.546 0.414062H693.325L717.325 24.4141Z" fill="#0BFFE2" fill-opacity="0.35"/>
<path d="M725.944 24.4141H722.165L698.165 0.414062H701.944L725.944 24.4141Z" fill="#0BFFE2" fill-opacity="0.35"/>
<path d="M734.563 24.4141H730.784L706.784 0.414062H710.563L734.563 24.4141Z" fill="#0BFFE2" fill-opacity="0.35"/>
<path d="M743.182 24.4141H739.403L715.403 0.414062H719.182L743.182 24.4141Z" fill="#0BFFE2" fill-opacity="0.35"/>
<path d="M751.802 24.4141H748.022L724.022 0.414062H727.802L751.802 24.4141Z" fill="#0BFFE2" fill-opacity="0.35"/>
<path d="M760.421 24.4141H756.642L732.642 0.414062H736.421L760.421 24.4141Z" fill="#0BFFE2" fill-opacity="0.35"/>
<path d="M769.04 24.4141H765.261L741.261 0.414062H745.04L769.04 24.4141Z" fill="#0BFFE2" fill-opacity="0.35"/>
<path d="M777.659 24.4141H773.88L749.88 0.414062H753.659L777.659 24.4141Z" fill="#0BFFE2" fill-opacity="0.35"/>
<path d="M786.278 24.4141H782.499L758.499 0.414062H762.278L786.278 24.4141Z" fill="#0BFFE2" fill-opacity="0.35"/>
<path d="M794.897 24.4141H791.118L767.118 0.414062H770.897L794.897 24.4141Z" fill="#0BFFE2" fill-opacity="0.35"/>
<path d="M803.517 24.4141H799.738L775.738 0.414062H779.517L803.517 24.4141Z" fill="#0BFFE2" fill-opacity="0.35"/>
<path d="M812.137 24.4141H808.357L784.357 0.414062H788.137L812.137 24.4141Z" fill="#0BFFE2" fill-opacity="0.35"/>
<path d="M820.756 24.4141H816.977L792.977 0.414062H796.756L820.756 24.4141Z" fill="#0BFFE2" fill-opacity="0.35"/>
<path d="M829.375 24.4141H825.596L801.596 0.414062H805.375L829.375 24.4141Z" fill="#0BFFE2" fill-opacity="0.35"/>
<path d="M837.994 24.4141H834.215L810.215 0.414062H813.994L837.994 24.4141Z" fill="#0BFFE2" fill-opacity="0.35"/>
<path d="M846.613 24.4141H842.834L818.834 0.414062H822.613L846.613 24.4141Z" fill="#0BFFE2" fill-opacity="0.35"/>
<path d="M855.232 24.4141H851.453L827.453 0.414062H831.232L855.232 24.4141Z" fill="#0BFFE2" fill-opacity="0.35"/>
<path d="M863.851 24.4141H860.072L836.072 0.414062H839.851L863.851 24.4141Z" fill="#0BFFE2" fill-opacity="0.35"/>
<path d="M872.471 24.4141H868.691L844.691 0.414062H848.471L872.471 24.4141Z" fill="#0BFFE2" fill-opacity="0.35"/>
<path d="M881.09 24.4141H877.311L853.311 0.414062H857.09L881.09 24.4141Z" fill="#0BFFE2" fill-opacity="0.35"/>
<path d="M889.709 24.4141H885.93L861.93 0.414062H865.709L889.709 24.4141Z" fill="#0BFFE2" fill-opacity="0.35"/>
<path d="M898.328 24.4141H894.549L870.549 0.414062H874.328L898.328 24.4141Z" fill="#0BFFE2" fill-opacity="0.35"/>
<path d="M906.947 24.4141H903.168L879.168 0.414062H882.947L906.947 24.4141Z" fill="#0BFFE2" fill-opacity="0.35"/>
<path d="M915.566 24.4141H911.787L887.787 0.414062H891.566L915.566 24.4141Z" fill="#0BFFE2" fill-opacity="0.35"/>
<path d="M924.185 24.4141H920.406L896.406 0.414062H900.185L924.185 24.4141Z" fill="#0BFFE2" fill-opacity="0.35"/>
<path d="M932.804 24.4141H929.025L905.025 0.414062H908.804L932.804 24.4141Z" fill="#0BFFE2" fill-opacity="0.35"/>
<path d="M941.424 24.4141H937.645L913.645 0.414062H917.424L941.424 24.4141Z" fill="#0BFFE2" fill-opacity="0.35"/>
<path d="M950.044 24.4141H946.265L922.265 0.414062H926.044L950.044 24.4141Z" fill="#0BFFE2" fill-opacity="0.35"/>
<path d="M958.663 24.4141H954.884L930.884 0.414062H934.663L958.663 24.4141Z" fill="#0BFFE2" fill-opacity="0.35"/>
<path d="M967.282 24.4141H963.503L939.503 0.414062H943.282L967.282 24.4141Z" fill="#0BFFE2" fill-opacity="0.35"/>
<path d="M975.901 24.4141H972.122L948.122 0.414062H951.901L975.901 24.4141Z" fill="#0BFFE2" fill-opacity="0.35"/>
<path d="M984.52 24.4141H980.741L956.741 0.414062H960.52L984.52 24.4141Z" fill="#0BFFE2" fill-opacity="0.35"/>
<path d="M993.139 24.4141H989.36L965.36 0.414062H969.139L993.139 24.4141Z" fill="#0BFFE2" fill-opacity="0.35"/>
<path d="M1001.76 24.4141H997.979L973.979 0.414062H977.759L1001.76 24.4141Z" fill="#0BFFE2" fill-opacity="0.35"/>
<path d="M1010.38 24.4141H1006.6L982.599 0.414062H986.378L1010.38 24.4141Z" fill="#0BFFE2" fill-opacity="0.35"/>
<path d="M1019 24.4141H1015.22L991.218 0.414062H994.997L1019 24.4141Z" fill="#0BFFE2" fill-opacity="0.35"/>
<path d="M1027.62 24.4141H1023.84L999.837 0.414062H1003.62L1027.62 24.4141Z" fill="#0BFFE2" fill-opacity="0.35"/>
<path d="M1036.24 24.4141H1032.46L1008.46 0.414062H1012.24L1036.24 24.4141Z" fill="#0BFFE2" fill-opacity="0.35"/>
<path d="M1044.85 24.4141H1041.08L1017.08 0.414062H1020.85L1044.85 24.4141Z" fill="#0BFFE2" fill-opacity="0.35"/>
<path d="M1053.47 24.4141H1049.69L1025.69 0.414062H1029.47L1053.47 24.4141Z" fill="#0BFFE2" fill-opacity="0.35"/>
<path d="M1062.09 24.4141H1058.31L1034.31 0.414062H1038.09L1062.09 24.4141Z" fill="#0BFFE2" fill-opacity="0.35"/>
<path d="M1070.71 24.4141H1066.93L1042.93 0.414062H1046.71L1070.71 24.4141Z" fill="#0BFFE2" fill-opacity="0.35"/>
<path d="M1079.33 24.4141H1075.55L1051.55 0.414062H1055.33L1079.33 24.4141Z" fill="#0BFFE2" fill-opacity="0.35"/>
<path d="M1087.95 24.4141H1084.17L1060.17 0.414062H1063.95L1087.95 24.4141Z" fill="#0BFFE2" fill-opacity="0.35"/>
<path d="M1096.57 24.4141H1092.79L1068.79 0.414062H1072.57L1096.57 24.4141Z" fill="#0BFFE2" fill-opacity="0.35"/>
<path d="M1105.19 24.4141H1101.41L1077.41 0.414062H1081.19L1105.19 24.4141Z" fill="#0BFFE2" fill-opacity="0.35"/>
<path d="M1113.81 24.4141H1110.03L1086.03 0.414062H1089.81L1113.81 24.4141Z" fill="#0BFFE2" fill-opacity="0.35"/>
<path d="M1122.43 24.4141H1118.65L1094.65 0.414062H1098.43L1122.43 24.4141Z" fill="#0BFFE2" fill-opacity="0.35"/>
<path d="M1131.05 24.4141H1127.27L1103.27 0.414062H1107.05L1131.05 24.4141Z" fill="#0BFFE2" fill-opacity="0.35"/>
<path d="M1139.66 24.4141H1135.89L1111.89 0.414062H1115.66L1139.66 24.4141Z" fill="#0BFFE2" fill-opacity="0.35"/>
<path d="M1148.28 24.4141H1144.5L1120.5 0.414062H1124.28L1148.28 24.4141Z" fill="#0BFFE2" fill-opacity="0.35"/>
<path d="M1156.9 24.4141H1153.12L1129.12 0.414062H1132.9L1156.9 24.4141Z" fill="#0BFFE2" fill-opacity="0.35"/>
<path d="M1165.52 24.4141H1161.74L1137.74 0.414062H1141.52L1165.52 24.4141Z" fill="#0BFFE2" fill-opacity="0.35"/>
<path d="M1174.14 24.4141H1170.36L1146.36 0.414062H1150.14L1174.14 24.4141Z" fill="#0BFFE2" fill-opacity="0.35"/>
<path d="M1182.76 24.4141H1178.98L1154.98 0.414062H1158.76L1182.76 24.4141Z" fill="#0BFFE2" fill-opacity="0.35"/>
<path d="M1191.38 24.4141H1187.6L1163.6 0.414062H1167.38L1191.38 24.4141Z" fill="#0BFFE2" fill-opacity="0.35"/>
<path d="M1200 24.4141H1196.22L1172.22 0.414062H1176L1200 24.4141Z" fill="#0BFFE2" fill-opacity="0.35"/>
</svg>
